<?xml version="1.0" encoding="UTF-8"?>
<svg xmlns="http://www.w3.org/2000/svg" xmlns:xlink="http://www.w3.org/1999/xlink" width="50pt" height="39pt" viewBox="0 0 50 39" version="1.1">
<g id="surface1">
<path style=" stroke:none;fill-rule:nonzero;fill:rgb(0%,0%,0%);fill-opacity:1;" d="M 44.09375 0.0820312 C 43.984375 0.128906 42.558594 1.226562 40.917969 2.519531 L 37.9375 4.882812 L 37.453125 4.796875 C 35.429688 4.441406 32.65625 4.578125 30.1875 5.15625 L 29.375 5.347656 L 29.109375 5.164062 C 28.976562 5.066406 28.289062 4.570312 27.585938 4.066406 C 25.59375 2.636719 23.125 0.945312 22.753906 0.769531 C 22.050781 0.441406 21.132812 0.640625 20.722656 1.210938 L 20.488281 1.53125 L 20.695312 5.050781 C 21.015625 10.511719 20.984375 11.347656 20.410156 13.9375 C 19.941406 16.035156 19.8125 16.949219 19.757812 18.714844 L 19.695312 20.414062 L 19.34375 20.453125 C 15.019531 20.992188 11.542969 22.515625 8.652344 25.121094 C 5.605469 27.878906 3.613281 31.375 2.390625 36.105469 C 1.972656 37.757812 1.960938 38.015625 2.304688 38.230469 C 2.625 38.429688 2.9375 38.4375 3.210938 38.253906 C 3.378906 38.15625 3.476562 37.910156 3.671875 37.132812 C 4.421875 34.0625 5.078125 32.34375 6.328125 30.164062 C 8.164062 26.988281 11.101562 24.367188 14.433594 22.949219 C 16.210938 22.195312 17.820312 21.777344 19.570312 21.625 C 20.917969 21.511719 20.976562 21.503906 21.09375 21.320312 C 21.164062 21.230469 21.21875 20.429688 21.242188 19.210938 C 21.269531 17.136719 21.335938 16.667969 21.921875 13.925781 C 22.304688 12.132812 22.5 10.304688 22.414062 9.140625 C 22.382812 8.699219 22.296875 7.121094 22.21875 5.636719 C 22.140625 4.152344 22.050781 2.664062 22.023438 2.339844 L 21.960938 1.738281 L 23.9375 3.101562 C 25.03125 3.847656 26.523438 4.898438 27.273438 5.445312 C 28.015625 5.988281 28.730469 6.488281 28.859375 6.550781 C 29.070312 6.648438 29.179688 6.640625 30.195312 6.382812 C 31.835938 5.957031 32.597656 5.859375 34.328125 5.8125 C 35.566406 5.78125 36.074219 5.796875 36.816406 5.902344 C 37.324219 5.980469 37.921875 6.054688 38.132812 6.078125 L 38.515625 6.109375 L 41.621094 3.648438 L 44.726562 1.179688 L 44.707031 5.5625 C 44.6875 10.71875 44.695312 10.769531 45.695312 12.566406 C 46.242188 13.542969 46.386719 13.984375 46.445312 14.929688 C 46.515625 15.925781 46.335938 16.828125 45.8125 18.152344 C 45.226562 19.605469 45.164062 19.882812 45.175781 21.136719 C 45.175781 22.128906 45.214844 22.425781 45.476562 23.347656 C 46.960938 28.578125 46.367188 33.148438 43.679688 37.285156 C 43.015625 38.3125 42.929688 38.605469 43.222656 38.855469 C 43.476562 39.078125 44.070312 39.054688 44.328125 38.808594 C 44.804688 38.320312 45.929688 36.417969 46.4375 35.222656 C 48 31.511719 48.164062 27.636719 46.953125 23.117188 C 46.710938 22.1875 46.648438 21.800781 46.648438 21.0625 C 46.660156 20.109375 46.699219 19.933594 47.402344 18.089844 C 47.832031 16.957031 47.976562 16.09375 47.921875 14.929688 C 47.851562 13.742188 47.695312 13.214844 47.039062 12.035156 C 46.179688 10.480469 46.242188 10.921875 46.230469 5.5625 C 46.230469 0.273438 46.25 0.472656 45.578125 0.152344 C 45.234375 -0.015625 44.421875 -0.0546875 44.09375 0.0820312 Z M 44.09375 0.0820312 "/>
<path style=" stroke:none;fill-rule:nonzero;fill:rgb(0%,0%,0%);fill-opacity:1;" d="M 29.394531 11.34375 C 28.367188 11.601562 27.675781 12.226562 27.429688 13.101562 C 27.351562 13.390625 27.351562 13.542969 27.441406 13.710938 C 27.585938 13.976562 28 14.128906 28.328125 14.023438 C 28.664062 13.933594 28.78125 13.800781 28.859375 13.445312 C 29.054688 12.589844 30.078125 12.15625 30.929688 12.566406 C 31.335938 12.757812 31.523438 12.996094 31.632812 13.4375 C 31.738281 13.886719 31.921875 14.046875 32.363281 14.046875 C 32.882812 14.046875 33.105469 13.839844 33.105469 13.375 C 33.105469 12.652344 32.453125 11.84375 31.570312 11.5 C 31.074219 11.304688 29.890625 11.210938 29.394531 11.34375 Z M 29.394531 11.34375 "/>
<path style=" stroke:none;fill-rule:nonzero;fill:rgb(0%,0%,0%);fill-opacity:1;" d="M 39.015625 11.363281 C 37.910156 11.691406 37.117188 12.53125 37.109375 13.375 C 37.109375 13.839844 37.335938 14.046875 37.851562 14.046875 C 38.289062 14.046875 38.476562 13.886719 38.585938 13.4375 C 38.691406 12.996094 38.875 12.757812 39.289062 12.566406 C 40.136719 12.15625 41.164062 12.589844 41.359375 13.445312 C 41.4375 13.800781 41.554688 13.933594 41.882812 14.023438 C 42.21875 14.128906 42.625 13.976562 42.773438 13.710938 C 42.859375 13.542969 42.859375 13.390625 42.78125 13.101562 C 42.578125 12.363281 42.0625 11.804688 41.257812 11.480469 C 40.800781 11.296875 39.484375 11.226562 39.015625 11.363281 Z M 39.015625 11.363281 "/>
<path style=" stroke:none;fill-rule:nonzero;fill:rgb(0%,0%,0%);fill-opacity:1;" d="M 29.785156 16.644531 C 29.589844 16.804688 29.570312 16.878906 29.617188 17.285156 C 29.71875 18.175781 30.429688 18.980469 31.464844 19.394531 C 31.882812 19.570312 32.148438 19.605469 32.859375 19.636719 C 33.640625 19.667969 33.796875 19.644531 34.296875 19.476562 C 34.601562 19.371094 35.039062 19.140625 35.28125 18.972656 L 35.710938 18.660156 L 36.015625 18.921875 C 36.179688 19.066406 36.609375 19.292969 36.972656 19.421875 C 37.570312 19.652344 37.675781 19.667969 38.457031 19.636719 C 39.109375 19.621094 39.421875 19.570312 39.84375 19.417969 C 40.917969 19.027344 41.671875 18.191406 41.765625 17.285156 C 41.816406 16.878906 41.796875 16.804688 41.601562 16.644531 C 41.101562 16.230469 40.410156 16.492188 40.304688 17.132812 C 40.226562 17.601562 39.785156 18.121094 39.257812 18.34375 C 38.664062 18.585938 37.890625 18.554688 37.304688 18.25 C 36.855469 18.023438 36.425781 17.421875 36.425781 17.015625 C 36.425781 16.71875 36.074219 16.453125 35.683594 16.453125 C 35.304688 16.453125 34.960938 16.726562 34.960938 17.03125 C 34.960938 17.398438 34.511719 18.007812 34.070312 18.25 C 32.910156 18.875 31.269531 18.289062 31.09375 17.175781 C 31.054688 16.957031 30.945312 16.726562 30.828125 16.621094 C 30.554688 16.390625 30.078125 16.398438 29.785156 16.644531 Z M 29.785156 16.644531 "/>
</g>
</svg>
